<svg xmlns="http://www.w3.org/2000/svg" width="64" height="64" id="social"><g transform="translate(0 -987.365)"><path fill="#7d9ec7" stroke="#496078" stroke-linecap="round" stroke-linejoin="round" d="M24.007 1041.862c1.94 0 3.5-1.56 3.5-3.5l-.007-.406v-3.094h9v3.5c0 1.94 1.561 3.5 3.5 3.5"></path><rect width="47" height="32" x="8.5" y="1002.862" fill="#e6dfd2" stroke="#496078" stroke-linecap="round" stroke-linejoin="round" rx="1.5" ry="1.5"></rect><rect width="46" height="31" x="9" y="1003.362" fill="#fff" rx="1" ry="1"></rect><path fill="#e6dfd2" d="M11.25 1005.612h41.5v23.5h-41.5z"></path><path fill="#eb8e68" fill-rule="evenodd" d="M31 1018.612c-.277 0-.5.223-.5.5v2.672a7 7 0 0 0-2.273.934l-1.883-1.883a.499.499 0 0 0-.707 0l-1.414 1.414a.499.499 0 0 0 0 .707l1.886 1.886a7 7 0 0 0-.943 2.27H22.5c-.277 0-.5.223-.5.5v1.5h6.037a4 4 0 0 1-.037-.5 4 4 0 0 1 4-4 4 4 0 0 1 4 4 4 4 0 0 1-.035.5H42v-1.5c0-.277-.223-.5-.5-.5h-2.672a7 7 0 0 0-.933-2.273l1.882-1.883a.499.499 0 0 0 0-.707l-1.414-1.414a.499.499 0 0 0-.707 0l-1.886 1.886a7 7 0 0 0-2.27-.943v-2.666c0-.277-.223-.5-.5-.5h-2z"></path><path fill="none" stroke="#496078" stroke-width=".5" d="M28 1028.612a3.987 3.987 0 0 1 1.172-2.828m1.271-.858a4 4 0 0 1 5.557 3.686"></path><path fill="none" stroke="#496078" stroke-linejoin="round" d="M42 1029.112v-1.5c0-.277-.223-.5-.5-.5h-2.672a7 7 0 0 0-.933-2.273l1.882-1.883a.499.499 0 0 0 0-.707l-1.414-1.414a.5.5 0 0 0-.707 0l-1.886 1.886a7 7 0 0 0-2.27-.943v-2.666c0-.277-.223-.5-.5-.5h-2c-.277 0-.5.223-.5.5v2.672a7.001 7.001 0 0 0-2.273.934l-1.883-1.883a.499.499 0 0 0-.707 0l-1.414 1.414a.499.499 0 0 0 0 .707l1.886 1.886a7 7 0 0 0-.943 2.27H22.5c-.277 0-.5.223-.5.5v1.5"></path><path fill="none" stroke="#496078" stroke-linecap="round" stroke-linejoin="round" stroke-width=".5" d="M45.126 1029.112H11.25v-23.5h41.5v23.5h-4.674"></path><circle cx="32" cy="1031.862" r="1.5" fill="#496078"></circle><rect width="23" height="2" x="20.5" y="1041.862" fill="#7d9ec7" stroke="#496078" stroke-linecap="round" stroke-linejoin="round" rx="1" ry="1"></rect><path fill="#b4cec5" stroke="#496078" stroke-linecap="round" stroke-linejoin="round" d="M50.571 994.612a7.05 7.05 0 0 0-7.07 7.058v13.475l5.168-5.067c1.13-1.127 1.836-1.35 3.188-1.35h2.572a7.05 7.05 0 0 0 7.07-7.058 7.05 7.05 0 0 0-7.07-7.058z"></path><path fill="#fff" d="M49.218 1001.064h4.567v4.93l-4.567-.262z"></path><path fill="#fff" fill-rule="evenodd" stroke="#496078" stroke-linecap="round" stroke-linejoin="round" stroke-width=".5" d="M49.732 1005.673h-1.785v-4.556h1.984"></path><path style="isolation:auto;mix-blend-mode:normal" fill="#fff" stroke="#496078" stroke-linecap="round" stroke-linejoin="round" stroke-width=".5" d="M49.732 1005.485c0 .434.344.783.772.783h5.043l.555-.508" color="#000" overflow="visible"></path><path fill="#fff" fill-rule="evenodd" stroke="#496078" stroke-linecap="round" stroke-linejoin="round" stroke-width=".5" d="M49.93 1003.098h2.183c.75 0 1.436-.55 1.772-1.422.337-.871.268-1.916-.18-2.699l-.006-.032v-1.161c0-.788-.688-1.422-1.544-1.422h-.043v1.584-.04c0 1.03-2.182 2.22-2.182 3.408"></path><rect stroke-linejoin="round" style="isolation:auto;mix-blend-mode:normal" width="3.57" height="1.565" x="54.096" y="999.928" fill="#fff" stroke="#496078" stroke-width=".5" color="#000" overflow="visible" rx=".784" ry=".783"></rect><rect style="isolation:auto;mix-blend-mode:normal" width="3.967" height="1.565" x="53.699" y="1001.513" fill="#fff" stroke="#496078" stroke-linejoin="round" stroke-width=".5" color="#000" overflow="visible" rx=".771" ry=".783"></rect><rect stroke-width=".5" style="isolation:auto;mix-blend-mode:normal" width="3.57" height="1.565" x="-57.27" y="1003.118" fill="#fff" stroke="#496078" stroke-linejoin="round" color="#000" overflow="visible" rx=".694" ry=".783" transform="scale(-1 1)"></rect><rect stroke-width=".5" style="isolation:auto;mix-blend-mode:normal" width="3.174" height="1.565" x="-56.873" y="1004.703" fill="#fff" stroke="#496078" stroke-linejoin="round" color="#000" overflow="visible" rx=".617" ry=".783" transform="scale(-1 1)"></rect><rect stroke-linejoin="round" style="isolation:auto;mix-blend-mode:normal" width="2.283" height="7.761" x="46.25" y="999.101" fill="#7d9ec7" stroke="#496078" stroke-width=".5" color="#000" overflow="visible" rx="0" ry="0"></rect><ellipse style="isolation:auto;mix-blend-mode:normal" cx="47.392" cy="1005.72" fill="#e6e6e6" color="#000" overflow="visible" rx=".457" ry=".456"></ellipse><path fill="#7d9ec7" stroke="#496078" stroke-linecap="round" stroke-linejoin="round" d="M3.35 997.612c-.471 0-.85.377-.85.846v9.308c0 .47.379.846.85.846H16.535l2.965 2.5v-4 .29-8.944a.846.846 0 0 0-.85-.846z"></path><path fill="none" stroke="#496078" stroke-linecap="round" stroke-linejoin="round" stroke-width=".5" d="m4.267 999.364 6.733 3.498 6.734-3.498"></path><path fill="#b4cec5" stroke="#496078" stroke-linecap="round" stroke-linejoin="round" stroke-width=".5" d="M13.84 1011.565c2.72 0 4.91 2.192 4.91 4.914v9.383l-3.59-3.528c-.784-.785-1.275-.94-2.214-.94h-1.785a4.902 4.902 0 0 1-4.91-4.914 4.902 4.902 0 0 1 4.91-4.915z"></path><path fill="#496078" d="M10.695 1019.616a5.648 5.648 0 0 1-.882-.205 5.474 5.474 0 0 1-.526-.226l-.287-.143.226.01c.407.013.917-.094 1.292-.273.236-.113.548-.315.548-.355 0-.02-.07-.043-.202-.069-.39-.073-.76-.317-.952-.626-.081-.13-.146-.257-.146-.285 0-.01.091-.01.203-.01.388 0 .485-.054.25-.137a1.437 1.437 0 0 1-.838-.732 1.794 1.794 0 0 1-.15-.57c0-.044.003-.044.093 0 .19.096.536.154.534.087 0-.016-.047-.064-.105-.107-.199-.15-.387-.448-.461-.735-.074-.285-.03-.747.092-.983l.034-.066.133.144c.364.393.748.681 1.223.92.473.238.98.384 1.483.43l.182.017-.015-.23a1.45 1.45 0 0 1 .138-.757c.407-.837 1.496-1.066 2.225-.467.126.103.14.109.232.094.138-.022.42-.122.603-.213.086-.043.163-.078.17-.078a1.45 1.45 0 0 1-.464.63c-.08.059-.13.134-.086.134.11 0 .576-.122.689-.18l.07-.036-.092.114a3.592 3.592 0 0 1-.495.5l-.122.094v.234c-.001.756-.255 1.586-.688 2.255-.771 1.193-2.007 1.847-3.463 1.832-.2 0-.402-.01-.446-.013z"></path><path fill="#eb8e68" stroke="#496078" stroke-linecap="round" stroke-linejoin="round" stroke-width=".5" d="M31.019 998.32c.559-.556.559-1.452 0-2.008a1.429 1.429 0 0 0-2.018 0 1.428 1.428 0 0 0-2.02 0 1.412 1.412 0 0 0 0 2.008l2.02 2.01.504-.503m.757-.753.252-.252"></path><path fill="#b4cec5" stroke="#496078" stroke-linecap="round" stroke-linejoin="round" stroke-width=".5" d="M58.567 1022.018c-.337 0-.674.128-.932.385a1.303 1.303 0 0 0 0 1.854l1.865 1.855 1.865-1.855a1.303 1.303 0 0 0 0-1.854 1.32 1.32 0 0 0-1.865 0 1.32 1.32 0 0 0-.933-.385z"></path></g></svg>